<svg width="1440" height="980" viewBox="0 0 1440 980" fill="none" xmlns="http://www.w3.org/2000/svg">
  <rect width="1440" height="980" fill="#F8F7FF"/>
  <rect x="22" y="20" width="1396" height="90" rx="28" fill="#FFFFFF" stroke="#D8D2FF"/>
  <text x="58" y="67" fill="#2C286E" font-family="Arial, sans-serif" font-size="30" font-weight="700">Send For Review</text>
  <text x="58" y="92" fill="#7A74AE" font-family="Arial, sans-serif" font-size="14">Choose who should review which sections before Loop sends feedback requests.</text>
  <rect x="1162" y="42" width="212" height="44" rx="16" fill="#FFFFFF" stroke="#D8D2FF"/>
  <text x="1200" y="69" fill="#5A55C7" font-family="Arial, sans-serif" font-size="14" font-weight="700">AI Suggested Routing</text>

  <rect x="22" y="130" width="396" height="818" rx="28" fill="#F2F0FF" stroke="#D8D2FF"/>
  <text x="54" y="174" fill="#2C286E" font-family="Arial, sans-serif" font-size="24" font-weight="700">All Sections</text>
  <text x="54" y="198" fill="#7A74AE" font-family="Arial, sans-serif" font-size="13">Grouped by workspace so the user can browse like a structured narrative tree.</text>

  <rect x="54" y="222" width="332" height="46" rx="16" fill="#FFFFFF" stroke="#D8D2FF"/>
  <text x="76" y="250" fill="#9B96C6" font-family="Arial, sans-serif" font-size="13">Search or filter sections</text>

  <text x="54" y="298" fill="#5A55C7" font-family="Arial, sans-serif" font-size="12" font-weight="700">PRODUCT TRUTH</text>
  <rect x="54" y="312" width="332" height="48" rx="16" fill="#FFFFFF" stroke="#D8D2FF"/><text x="78" y="341" fill="#2C286E" font-family="Arial, sans-serif" font-size="15" font-weight="700">Problem</text>
  <rect x="54" y="370" width="332" height="48" rx="16" fill="#FFFFFF" stroke="#D8D2FF"/><text x="78" y="399" fill="#2C286E" font-family="Arial, sans-serif" font-size="15" font-weight="700">Solution</text>
  <rect x="54" y="428" width="332" height="48" rx="16" fill="#FFFFFF" stroke="#D8D2FF"/><text x="78" y="457" fill="#2C286E" font-family="Arial, sans-serif" font-size="15" font-weight="700">Primary Audience</text>
  <rect x="54" y="486" width="332" height="48" rx="16" fill="#FFFFFF" stroke="#D8D2FF"/><text x="78" y="515" fill="#2C286E" font-family="Arial, sans-serif" font-size="15" font-weight="700">Differentiation</text>

  <text x="54" y="572" fill="#5A55C7" font-family="Arial, sans-serif" font-size="12" font-weight="700">CORE NARRATIVE</text>
  <rect x="54" y="586" width="332" height="48" rx="16" fill="#FFFFFF" stroke="#D8D2FF"/><text x="78" y="615" fill="#2C286E" font-family="Arial, sans-serif" font-size="15" font-weight="700">Positioning Statement</text>
  <rect x="54" y="644" width="332" height="48" rx="16" fill="#FFFFFF" stroke="#D8D2FF"/><text x="78" y="673" fill="#2C286E" font-family="Arial, sans-serif" font-size="15" font-weight="700">Messaging</text>
  <rect x="54" y="702" width="332" height="48" rx="16" fill="#FFFFFF" stroke="#D8D2FF"/><text x="78" y="731" fill="#2C286E" font-family="Arial, sans-serif" font-size="15" font-weight="700">Value Proposition</text>

  <text x="54" y="788" fill="#5A55C7" font-family="Arial, sans-serif" font-size="12" font-weight="700">GTM</text>
  <rect x="54" y="802" width="332" height="48" rx="16" fill="#FFFFFF" stroke="#D8D2FF"/><text x="78" y="831" fill="#2C286E" font-family="Arial, sans-serif" font-size="15" font-weight="700">GTM Strategy</text>
  <rect x="54" y="860" width="332" height="48" rx="16" fill="#FFFFFF" stroke="#D8D2FF"/><text x="78" y="889" fill="#2C286E" font-family="Arial, sans-serif" font-size="15" font-weight="700">Key Channels</text>

  <rect x="438" y="130" width="980" height="818" rx="28" fill="#FFFFFF" stroke="#D8D2FF"/>
  <text x="472" y="174" fill="#2C286E" font-family="Arial, sans-serif" font-size="24" font-weight="700">Review Teams</text>
  <text x="472" y="198" fill="#7A74AE" font-family="Arial, sans-serif" font-size="13">Loop preloads each lane based on routing rules. Users can drag sections in or out before sending.</text>

  <rect x="472" y="228" width="286" height="676" rx="24" fill="#FBFAFF" stroke="#D8D2FF"/>
  <text x="500" y="268" fill="#2C286E" font-family="Arial, sans-serif" font-size="22" font-weight="700">Sales</text>
  <rect x="648" y="246" width="84" height="30" rx="12" fill="#EFEAFF" stroke="#D8D2FF"/><text x="668" y="265" fill="#5A55C7" font-family="Arial, sans-serif" font-size="11" font-weight="700">3 routed</text>
  <rect x="500" y="300" width="230" height="78" rx="18" fill="#FFFFFF" stroke="#D8D2FF"/>
  <text x="522" y="330" fill="#2C286E" font-family="Arial, sans-serif" font-size="15" font-weight="700">Positioning Statement</text>
  <text x="522" y="354" fill="#7A74AE" font-family="Arial, sans-serif" font-size="12">AI route: buyer resonance + sales clarity</text>
  <rect x="500" y="392" width="230" height="78" rx="18" fill="#FFFFFF" stroke="#D8D2FF"/>
  <text x="522" y="422" fill="#2C286E" font-family="Arial, sans-serif" font-size="15" font-weight="700">Messaging</text>
  <text x="522" y="446" fill="#7A74AE" font-family="Arial, sans-serif" font-size="12">AI route: objection handling and pitch use</text>

  <rect x="784" y="228" width="286" height="676" rx="24" fill="#FBFAFF" stroke="#D8D2FF"/>
  <text x="812" y="268" fill="#2C286E" font-family="Arial, sans-serif" font-size="22" font-weight="700">Product</text>
  <rect x="960" y="246" width="84" height="30" rx="12" fill="#EFEAFF" stroke="#D8D2FF"/><text x="980" y="265" fill="#5A55C7" font-family="Arial, sans-serif" font-size="11" font-weight="700">4 routed</text>
  <rect x="812" y="300" width="230" height="78" rx="18" fill="#FFFFFF" stroke="#D8D2FF"/>
  <text x="834" y="330" fill="#2C286E" font-family="Arial, sans-serif" font-size="15" font-weight="700">Problem</text>
  <text x="834" y="354" fill="#7A74AE" font-family="Arial, sans-serif" font-size="12">AI route: accuracy and problem truth</text>
  <rect x="812" y="392" width="230" height="78" rx="18" fill="#FFFFFF" stroke="#D8D2FF"/>
  <text x="834" y="422" fill="#2C286E" font-family="Arial, sans-serif" font-size="15" font-weight="700">Solution</text>
  <text x="834" y="446" fill="#7A74AE" font-family="Arial, sans-serif" font-size="12">AI route: product correctness and feasibility</text>

  <rect x="1096" y="228" width="286" height="676" rx="24" fill="#FBFAFF" stroke="#D8D2FF"/>
  <text x="1124" y="268" fill="#2C286E" font-family="Arial, sans-serif" font-size="22" font-weight="700">PMM</text>
  <rect x="1272" y="246" width="84" height="30" rx="12" fill="#EFEAFF" stroke="#D8D2FF"/><text x="1292" y="265" fill="#5A55C7" font-family="Arial, sans-serif" font-size="11" font-weight="700">5 routed</text>
  <rect x="1124" y="300" width="230" height="78" rx="18" fill="#FFFFFF" stroke="#D8D2FF"/>
  <text x="1146" y="330" fill="#2C286E" font-family="Arial, sans-serif" font-size="15" font-weight="700">Value Proposition</text>
  <text x="1146" y="354" fill="#7A74AE" font-family="Arial, sans-serif" font-size="12">AI route: message strategy ownership</text>
  <rect x="1124" y="392" width="230" height="78" rx="18" fill="#FFFFFF" stroke="#D8D2FF"/>
  <text x="1146" y="422" fill="#2C286E" font-family="Arial, sans-serif" font-size="15" font-weight="700">Launch Strategy</text>
  <text x="1146" y="446" fill="#7A74AE" font-family="Arial, sans-serif" font-size="12">AI route: narrative-to-market execution</text>
</svg>
