<svg width="1500" height="760" viewBox="0 0 1500 760" fill="none" xmlns="http://www.w3.org/2000/svg">
  <rect width="1500" height="760" fill="#F7F5FF"/>
  <text x="60" y="68" fill="#29236A" font-family="Arial, sans-serif" font-size="32" font-weight="700">Collapsed Review Rows</text>
  <text x="60" y="100" fill="#6B6691" font-family="Arial, sans-serif" font-size="17">Option 1 · Loop-style unified review grid with only collapsed rows.</text>

  <rect x="48" y="132" width="1404" height="560" rx="28" fill="#FFFFFF" stroke="#DAD3FF" stroke-width="2"/>

  <rect x="72" y="160" width="1356" height="60" rx="18" fill="#FBFAFF" stroke="#E6E0FF" stroke-width="2"/>
  <text x="96" y="197" fill="#4D46B5" font-family="Arial, sans-serif" font-size="11" font-weight="700" letter-spacing="1.1">SECTION</text>
  <text x="520" y="197" fill="#4D46B5" font-family="Arial, sans-serif" font-size="11" font-weight="700" letter-spacing="1.1">TEAM</text>
  <text x="650" y="197" fill="#4D46B5" font-family="Arial, sans-serif" font-size="11" font-weight="700" letter-spacing="1.1">CLARITY</text>
  <text x="780" y="197" fill="#4D46B5" font-family="Arial, sans-serif" font-size="11" font-weight="700" letter-spacing="1.1">RELEVANCE</text>
  <text x="932" y="197" fill="#4D46B5" font-family="Arial, sans-serif" font-size="11" font-weight="700" letter-spacing="1.1">DIFFERENTIATION</text>
  <text x="1138" y="197" fill="#4D46B5" font-family="Arial, sans-serif" font-size="11" font-weight="700" letter-spacing="1.1">VALUE</text>
  <text x="1248" y="197" fill="#4D46B5" font-family="Arial, sans-serif" font-size="11" font-weight="700" letter-spacing="1.1">OVERALL</text>
  <text x="1344" y="197" fill="#4D46B5" font-family="Arial, sans-serif" font-size="11" font-weight="700" letter-spacing="1.1">STATUS</text>

  <g font-family="Arial, sans-serif">
    <rect x="72" y="238" width="1356" height="66" rx="18" fill="#FFFFFF" stroke="#E6E0FF" stroke-width="2"/>
    <text x="96" y="267" fill="#29236A" font-size="15" font-weight="700">Positioning Statement</text>
    <text x="96" y="289" fill="#6B6691" font-size="12">Click row to review details</text>
    <text x="530" y="279" fill="#3E386F" font-size="14" font-weight="700">Sales</text>
    <text x="664" y="279" fill="#3E386F" font-size="14" font-weight="700">7</text>
    <text x="796" y="279" fill="#3E386F" font-size="14" font-weight="700">6</text>
    <text x="970" y="279" fill="#3E386F" font-size="14" font-weight="700">5</text>
    <text x="1150" y="279" fill="#3E386F" font-size="14" font-weight="700">6</text>
    <text x="1262" y="279" fill="#3E386F" font-size="14" font-weight="700">6.0</text>
    <rect x="1330" y="256" width="80" height="28" rx="999" fill="#FFF7E8"/>
    <text x="1346" y="274" fill="#AE7B10" font-size="12" font-weight="700">In Review</text>

    <rect x="72" y="320" width="1356" height="66" rx="18" fill="#FFFFFF" stroke="#E6E0FF" stroke-width="2"/>
    <text x="96" y="349" fill="#29236A" font-size="15" font-weight="700">Value Proposition</text>
    <text x="96" y="371" fill="#6B6691" font-size="12">Click row to review details</text>
    <text x="530" y="361" fill="#3E386F" font-size="14" font-weight="700">PMM</text>
    <text x="664" y="361" fill="#3E386F" font-size="14" font-weight="700">8</text>
    <text x="796" y="361" fill="#3E386F" font-size="14" font-weight="700">7</text>
    <text x="970" y="361" fill="#3E386F" font-size="14" font-weight="700">7</text>
    <text x="1150" y="361" fill="#3E386F" font-size="14" font-weight="700">8</text>
    <text x="1262" y="361" fill="#3E386F" font-size="14" font-weight="700">7.5</text>
    <rect x="1330" y="338" width="80" height="28" rx="999" fill="#ECFFF3"/>
    <text x="1350" y="356" fill="#177A51" font-size="12" font-weight="700">Approved</text>

    <rect x="72" y="402" width="1356" height="66" rx="18" fill="#FFFFFF" stroke="#E6E0FF" stroke-width="2"/>
    <text x="96" y="431" fill="#29236A" font-size="15" font-weight="700">Messaging</text>
    <text x="96" y="453" fill="#6B6691" font-size="12">Click row to review details</text>
    <text x="530" y="443" fill="#3E386F" font-size="14" font-weight="700">PMM</text>
    <text x="664" y="443" fill="#3E386F" font-size="14" font-weight="700">7</text>
    <text x="796" y="443" fill="#3E386F" font-size="14" font-weight="700">8</text>
    <text x="970" y="443" fill="#3E386F" font-size="14" font-weight="700">6</text>
    <text x="1150" y="443" fill="#3E386F" font-size="14" font-weight="700">7</text>
    <text x="1262" y="443" fill="#3E386F" font-size="14" font-weight="700">7.0</text>
    <rect x="1330" y="420" width="80" height="28" rx="999" fill="#FFF7E8"/>
    <text x="1346" y="438" fill="#AE7B10" font-size="12" font-weight="700">In Review</text>

    <rect x="72" y="484" width="1356" height="66" rx="18" fill="#FFFFFF" stroke="#E6E0FF" stroke-width="2"/>
    <text x="96" y="513" fill="#29236A" font-size="15" font-weight="700">Primary Audience</text>
    <text x="96" y="535" fill="#6B6691" font-size="12">Click row to review details</text>
    <text x="530" y="525" fill="#3E386F" font-size="14" font-weight="700">Product</text>
    <text x="664" y="525" fill="#3E386F" font-size="14" font-weight="700">8</text>
    <text x="796" y="525" fill="#3E386F" font-size="14" font-weight="700">7</text>
    <text x="970" y="525" fill="#3E386F" font-size="14" font-weight="700">6</text>
    <text x="1150" y="525" fill="#3E386F" font-size="14" font-weight="700">7</text>
    <text x="1262" y="525" fill="#3E386F" font-size="14" font-weight="700">7.0</text>
    <rect x="1330" y="502" width="80" height="28" rx="999" fill="#ECFFF3"/>
    <text x="1350" y="520" fill="#177A51" font-size="12" font-weight="700">Approved</text>

    <rect x="72" y="566" width="1356" height="66" rx="18" fill="#FFFFFF" stroke="#E6E0FF" stroke-width="2"/>
    <text x="96" y="595" fill="#29236A" font-size="15" font-weight="700">GTM Strategy</text>
    <text x="96" y="617" fill="#6B6691" font-size="12">Click row to review details</text>
    <text x="530" y="607" fill="#3E386F" font-size="14" font-weight="700">Sales</text>
    <text x="664" y="607" fill="#3E386F" font-size="14" font-weight="700">6</text>
    <text x="796" y="607" fill="#3E386F" font-size="14" font-weight="700">7</text>
    <text x="970" y="607" fill="#3E386F" font-size="14" font-weight="700">5</text>
    <text x="1150" y="607" fill="#3E386F" font-size="14" font-weight="700">6</text>
    <text x="1262" y="607" fill="#3E386F" font-size="14" font-weight="700">6.0</text>
    <rect x="1330" y="584" width="80" height="28" rx="999" fill="#FFF7E8"/>
    <text x="1346" y="602" fill="#AE7B10" font-size="12" font-weight="700">In Review</text>
  </g>
</svg>
