<svg width="1500" height="820" viewBox="0 0 1500 820" fill="none" xmlns="http://www.w3.org/2000/svg">
  <rect width="1500" height="820" fill="#F7F5FF"/>
  <text x="60" y="70" fill="#29236A" font-family="Arial, sans-serif" font-size="32" font-weight="700">Collapsed Review Rows</text>
  <text x="60" y="102" fill="#6B6691" font-family="Arial, sans-serif" font-size="17">Premium version · cleaner spacing and softer hierarchy.</text>

  <rect x="52" y="136" width="1396" height="620" rx="30" fill="#FFFFFF" stroke="#DAD3FF" stroke-width="2"/>
  <rect x="80" y="164" width="1340" height="88" rx="22" fill="#FBFAFF" stroke="#E6E0FF" stroke-width="2"/>
  <text x="108" y="196" fill="#5A52C4" font-family="Arial, sans-serif" font-size="12" font-weight="700" letter-spacing="1.1">REVIEW BOARD</text>
  <text x="108" y="230" fill="#29236A" font-family="Arial, sans-serif" font-size="24" font-weight="700">All sections in one operational review grid</text>

  <rect x="80" y="276" width="1340" height="58" rx="16" fill="#F3F0FF"/>
  <text x="104" y="312" fill="#4D46B5" font-family="Arial, sans-serif" font-size="10" font-weight="700" letter-spacing="1.1">SECTION</text>
  <text x="512" y="312" fill="#4D46B5" font-family="Arial, sans-serif" font-size="10" font-weight="700" letter-spacing="1.1">TEAM</text>
  <text x="622" y="312" fill="#4D46B5" font-family="Arial, sans-serif" font-size="10" font-weight="700" letter-spacing="1.1">CLARITY</text>
  <text x="744" y="312" fill="#4D46B5" font-family="Arial, sans-serif" font-size="10" font-weight="700" letter-spacing="1.1">RELEVANCE</text>
  <text x="878" y="312" fill="#4D46B5" font-family="Arial, sans-serif" font-size="10" font-weight="700" letter-spacing="1.1">DIFFERENTIATION</text>
  <text x="1082" y="312" fill="#4D46B5" font-family="Arial, sans-serif" font-size="10" font-weight="700" letter-spacing="1.1">VALUE</text>
  <text x="1188" y="312" fill="#4D46B5" font-family="Arial, sans-serif" font-size="10" font-weight="700" letter-spacing="1.1">OVERALL</text>
  <text x="1288" y="312" fill="#4D46B5" font-family="Arial, sans-serif" font-size="10" font-weight="700" letter-spacing="1.1">STATUS</text>

  <g font-family="Arial, sans-serif">
    <rect x="80" y="352" width="1340" height="74" rx="20" fill="#FFFFFF" stroke="#E6E0FF" stroke-width="2"/>
    <text x="104" y="382" fill="#29236A" font-size="15" font-weight="700">Positioning Statement</text>
    <text x="104" y="405" fill="#6B6691" font-size="12">Review detail available on expand</text>
    <text x="518" y="395" fill="#3E386F" font-size="14" font-weight="700">Sales</text>
    <text x="638" y="395" fill="#3E386F" font-size="14" font-weight="700">7</text>
    <text x="760" y="395" fill="#3E386F" font-size="14" font-weight="700">6</text>
    <text x="902" y="395" fill="#3E386F" font-size="14" font-weight="700">5</text>
    <text x="1096" y="395" fill="#3E386F" font-size="14" font-weight="700">6</text>
    <text x="1200" y="395" fill="#3E386F" font-size="14" font-weight="700">6.0</text>
    <rect x="1282" y="377" width="108" height="30" rx="999" fill="#FFF7E8"/>
    <text x="1310" y="397" fill="#AE7B10" font-size="12" font-weight="700">In Review</text>

    <rect x="80" y="442" width="1340" height="74" rx="20" fill="#FFFFFF" stroke="#E6E0FF" stroke-width="2"/>
    <text x="104" y="472" fill="#29236A" font-size="15" font-weight="700">Value Proposition</text>
    <text x="104" y="495" fill="#6B6691" font-size="12">Review detail available on expand</text>
    <text x="518" y="485" fill="#3E386F" font-size="14" font-weight="700">PMM</text>
    <text x="638" y="485" fill="#3E386F" font-size="14" font-weight="700">8</text>
    <text x="760" y="485" fill="#3E386F" font-size="14" font-weight="700">7</text>
    <text x="902" y="485" fill="#3E386F" font-size="14" font-weight="700">7</text>
    <text x="1096" y="485" fill="#3E386F" font-size="14" font-weight="700">8</text>
    <text x="1200" y="485" fill="#3E386F" font-size="14" font-weight="700">7.5</text>
    <rect x="1282" y="467" width="108" height="30" rx="999" fill="#ECFFF3"/>
    <text x="1312" y="487" fill="#177A51" font-size="12" font-weight="700">Approved</text>

    <rect x="80" y="532" width="1340" height="74" rx="20" fill="#FFFFFF" stroke="#E6E0FF" stroke-width="2"/>
    <text x="104" y="562" fill="#29236A" font-size="15" font-weight="700">Problem Statement</text>
    <text x="104" y="585" fill="#6B6691" font-size="12">Review detail available on expand</text>
    <text x="518" y="575" fill="#3E386F" font-size="14" font-weight="700">Product</text>
    <text x="638" y="575" fill="#3E386F" font-size="14" font-weight="700">7</text>
    <text x="760" y="575" fill="#3E386F" font-size="14" font-weight="700">7</text>
    <text x="902" y="575" fill="#3E386F" font-size="14" font-weight="700">6</text>
    <text x="1096" y="575" fill="#3E386F" font-size="14" font-weight="700">7</text>
    <text x="1200" y="575" fill="#3E386F" font-size="14" font-weight="700">6.8</text>
    <rect x="1282" y="557" width="108" height="30" rx="999" fill="#FFF7E8"/>
    <text x="1310" y="577" fill="#AE7B10" font-size="12" font-weight="700">In Review</text>

    <rect x="80" y="622" width="1340" height="74" rx="20" fill="#FFFFFF" stroke="#E6E0FF" stroke-width="2"/>
    <text x="104" y="652" fill="#29236A" font-size="15" font-weight="700">GTM Strategy</text>
    <text x="104" y="675" fill="#6B6691" font-size="12">Review detail available on expand</text>
    <text x="518" y="665" fill="#3E386F" font-size="14" font-weight="700">Sales</text>
    <text x="638" y="665" fill="#3E386F" font-size="14" font-weight="700">6</text>
    <text x="760" y="665" fill="#3E386F" font-size="14" font-weight="700">7</text>
    <text x="902" y="665" fill="#3E386F" font-size="14" font-weight="700">5</text>
    <text x="1096" y="665" fill="#3E386F" font-size="14" font-weight="700">6</text>
    <text x="1200" y="665" fill="#3E386F" font-size="14" font-weight="700">6.0</text>
    <rect x="1282" y="647" width="108" height="30" rx="999" fill="#FFF7E8"/>
    <text x="1310" y="667" fill="#AE7B10" font-size="12" font-weight="700">In Review</text>
  </g>
</svg>
