<svg width="1440" height="980" viewBox="0 0 1440 980" fill="none" xmlns="http://www.w3.org/2000/svg">
  <rect width="1440" height="980" fill="#F4F3FF"/>
  <rect x="36" y="30" width="1368" height="78" rx="22" fill="#FFFFFF" stroke="#D8D2FF"/>
  <text x="66" y="70" fill="#27245F" font-family="Arial, sans-serif" font-size="28" font-weight="700">Review Routing</text>
  <text x="66" y="92" fill="#746FA9" font-family="Arial, sans-serif" font-size="13">Route sections to the right team before feedback begins.</text>
  <rect x="1192" y="46" width="176" height="40" rx="12" fill="#5A55C7"/>
  <text x="1230" y="71" fill="#FFFFFF" font-family="Arial, sans-serif" font-size="14" font-weight="700">Send for Review</text>

  <rect x="36" y="130" width="300" height="808" rx="24" fill="#FFFFFF" stroke="#D8D2FF"/>
  <text x="62" y="170" fill="#27245F" font-family="Arial, sans-serif" font-size="22" font-weight="700">Sections</text>
  <rect x="62" y="192" width="248" height="40" rx="12" fill="#F7F6FF" stroke="#D8D2FF"/>
  <text x="82" y="217" fill="#938EBF" font-family="Arial, sans-serif" font-size="12">Search all sections</text>

  <text x="62" y="258" fill="#5A55C7" font-family="Arial, sans-serif" font-size="11" font-weight="700">PRODUCT TRUTH</text>
  <rect x="62" y="270" width="248" height="42" rx="12" fill="#FBFAFF" stroke="#D8D2FF"/><text x="82" y="296" fill="#27245F" font-family="Arial, sans-serif" font-size="14" font-weight="700">Problem</text>
  <rect x="62" y="320" width="248" height="42" rx="12" fill="#FBFAFF" stroke="#D8D2FF"/><text x="82" y="346" fill="#27245F" font-family="Arial, sans-serif" font-size="14" font-weight="700">Solution</text>
  <rect x="62" y="370" width="248" height="42" rx="12" fill="#FBFAFF" stroke="#D8D2FF"/><text x="82" y="396" fill="#27245F" font-family="Arial, sans-serif" font-size="14" font-weight="700">Differentiation</text>

  <text x="62" y="448" fill="#5A55C7" font-family="Arial, sans-serif" font-size="11" font-weight="700">CORE NARRATIVE</text>
  <rect x="62" y="460" width="248" height="42" rx="12" fill="#FBFAFF" stroke="#D8D2FF"/><text x="82" y="486" fill="#27245F" font-family="Arial, sans-serif" font-size="14" font-weight="700">Positioning</text>
  <rect x="62" y="510" width="248" height="42" rx="12" fill="#FBFAFF" stroke="#D8D2FF"/><text x="82" y="536" fill="#27245F" font-family="Arial, sans-serif" font-size="14" font-weight="700">Messaging</text>
  <rect x="62" y="560" width="248" height="42" rx="12" fill="#FBFAFF" stroke="#D8D2FF"/><text x="82" y="586" fill="#27245F" font-family="Arial, sans-serif" font-size="14" font-weight="700">Value Proposition</text>

  <text x="62" y="638" fill="#5A55C7" font-family="Arial, sans-serif" font-size="11" font-weight="700">GTM</text>
  <rect x="62" y="650" width="248" height="42" rx="12" fill="#FBFAFF" stroke="#D8D2FF"/><text x="82" y="676" fill="#27245F" font-family="Arial, sans-serif" font-size="14" font-weight="700">GTM Strategy</text>
  <rect x="62" y="700" width="248" height="42" rx="12" fill="#FBFAFF" stroke="#D8D2FF"/><text x="82" y="726" fill="#27245F" font-family="Arial, sans-serif" font-size="14" font-weight="700">Key Channels</text>

  <rect x="360" y="130" width="1044" height="808" rx="24" fill="#FFFFFF" stroke="#D8D2FF"/>
  <text x="390" y="170" fill="#27245F" font-family="Arial, sans-serif" font-size="22" font-weight="700">Team Lanes</text>
  <text x="390" y="192" fill="#746FA9" font-family="Arial, sans-serif" font-size="13">AI suggests routing first. Users drag cards across lanes to override.</text>

  <rect x="390" y="222" width="306" height="680" rx="20" fill="#FAF9FF" stroke="#D8D2FF"/>
  <text x="416" y="258" fill="#27245F" font-family="Arial, sans-serif" font-size="20" font-weight="700">Sales</text>
  <rect x="596" y="238" width="74" height="28" rx="10" fill="#F0EEFF" stroke="#D8D2FF"/><text x="616" y="256" fill="#5A55C7" font-family="Arial, sans-serif" font-size="11" font-weight="700">3 items</text>
  <rect x="416" y="286" width="254" height="68" rx="16" fill="#FFFFFF" stroke="#D8D2FF"/>
  <text x="438" y="314" fill="#27245F" font-family="Arial, sans-serif" font-size="15" font-weight="700">Messaging</text>
  <text x="438" y="336" fill="#746FA9" font-family="Arial, sans-serif" font-size="12">Pitch resonance and objections</text>
  <rect x="416" y="368" width="254" height="68" rx="16" fill="#FFFFFF" stroke="#D8D2FF"/>
  <text x="438" y="396" fill="#27245F" font-family="Arial, sans-serif" font-size="15" font-weight="700">Elevator Pitch</text>
  <text x="438" y="418" fill="#746FA9" font-family="Arial, sans-serif" font-size="12">Direct use in calls and outbound</text>

  <rect x="728" y="222" width="306" height="680" rx="20" fill="#FAF9FF" stroke="#D8D2FF"/>
  <text x="754" y="258" fill="#27245F" font-family="Arial, sans-serif" font-size="20" font-weight="700">Product</text>
  <rect x="934" y="238" width="74" height="28" rx="10" fill="#F0EEFF" stroke="#D8D2FF"/><text x="954" y="256" fill="#5A55C7" font-family="Arial, sans-serif" font-size="11" font-weight="700">4 items</text>
  <rect x="754" y="286" width="254" height="68" rx="16" fill="#FFFFFF" stroke="#D8D2FF"/>
  <text x="776" y="314" fill="#27245F" font-family="Arial, sans-serif" font-size="15" font-weight="700">Problem</text>
  <text x="776" y="336" fill="#746FA9" font-family="Arial, sans-serif" font-size="12">Truth accuracy and problem framing</text>
  <rect x="754" y="368" width="254" height="68" rx="16" fill="#FFFFFF" stroke="#D8D2FF"/>
  <text x="776" y="396" fill="#27245F" font-family="Arial, sans-serif" font-size="15" font-weight="700">Solution</text>
  <text x="776" y="418" fill="#746FA9" font-family="Arial, sans-serif" font-size="12">Capability and product correctness</text>

  <rect x="1066" y="222" width="306" height="680" rx="20" fill="#FAF9FF" stroke="#D8D2FF"/>
  <text x="1092" y="258" fill="#27245F" font-family="Arial, sans-serif" font-size="20" font-weight="700">PMM</text>
  <rect x="1272" y="238" width="74" height="28" rx="10" fill="#F0EEFF" stroke="#D8D2FF"/><text x="1292" y="256" fill="#5A55C7" font-family="Arial, sans-serif" font-size="11" font-weight="700">5 items</text>
  <rect x="1092" y="286" width="254" height="68" rx="16" fill="#FFFFFF" stroke="#D8D2FF"/>
  <text x="1114" y="314" fill="#27245F" font-family="Arial, sans-serif" font-size="15" font-weight="700">Value Proposition</text>
  <text x="1114" y="336" fill="#746FA9" font-family="Arial, sans-serif" font-size="12">Strategic message ownership</text>
  <rect x="1092" y="368" width="254" height="68" rx="16" fill="#FFFFFF" stroke="#D8D2FF"/>
  <text x="1114" y="396" fill="#27245F" font-family="Arial, sans-serif" font-size="15" font-weight="700">Launch Strategy</text>
  <text x="1114" y="418" fill="#746FA9" font-family="Arial, sans-serif" font-size="12">Narrative-to-market execution</text>
</svg>
