<svg width="620" height="780" viewBox="0 0 620 780" fill="none" xmlns="http://www.w3.org/2000/svg">
  <rect width="620" height="780" fill="#F6F4FF"/>
  <rect x="0" y="0" width="240" height="780" fill="#FAF9FF"/>
  <line x1="240.5" y1="0" x2="240.5" y2="780" stroke="#D9D1FB"/>

  <rect x="256" y="18" width="92" height="46" rx="16" fill="#ECE7FF" stroke="#D6CDFC"/>
  <rect x="356" y="18" width="92" height="46" rx="16" fill="#ECE7FF" stroke="#D6CDFC"/>
  <text x="302" y="46" text-anchor="middle" font-family="Arial, sans-serif" font-size="14" font-weight="700" fill="#5D58D6">Assistant</text>
  <text x="402" y="46" text-anchor="middle" font-family="Arial, sans-serif" font-size="14" font-weight="700" fill="#5D58D6">Ask AI</text>

  <rect x="256" y="80" width="178" height="684" rx="20" fill="white" stroke="#DDD5FB"/>
  <rect x="448" y="80" width="156" height="684" rx="20" fill="white" stroke="#DDD5FB"/>

  <rect x="270" y="96" width="150" height="70" rx="16" fill="#FCFBFF" stroke="#E3DDFC"/>
  <text x="286" y="123" font-family="Arial, sans-serif" font-size="17" font-weight="700" fill="#2F2A88">AI Assistant</text>
  <text x="286" y="144" font-family="Arial, sans-serif" font-size="12" fill="#6E6889">Flags and suggested actions</text>
  <circle cx="394" cy="129" r="15" fill="#FFF6E6"/>
  <text x="394" y="134" text-anchor="middle" font-family="Arial, sans-serif" font-size="10" font-weight="800" fill="#D97706">2</text>

  <rect x="462" y="96" width="128" height="70" rx="16" fill="#FCFBFF" stroke="#E3DDFC"/>
  <text x="478" y="123" font-family="Arial, sans-serif" font-size="17" font-weight="700" fill="#2F2A88">Ask AI</text>
  <text x="478" y="144" font-family="Arial, sans-serif" font-size="12" fill="#6E6889">Freeform prompt space</text>

  <rect x="270" y="184" width="150" height="112" rx="16" fill="#FFF9EF" stroke="#F3D48C"/>
  <text x="284" y="210" font-family="Arial, sans-serif" font-size="13" font-weight="700" fill="#2F2A88">Positioning issue</text>
  <text x="284" y="232" font-family="Arial, sans-serif" font-size="12" fill="#6E6889">The statement is still too feature-led.</text>
  <rect x="284" y="250" width="78" height="18" rx="9" fill="#F59E0B"/>
  <text x="323" y="263" text-anchor="middle" font-family="Arial, sans-serif" font-size="10" font-weight="700" fill="white">Review</text>

  <rect x="270" y="312" width="150" height="112" rx="16" fill="#F8FBFF" stroke="#C9DFFD"/>
  <text x="284" y="338" font-family="Arial, sans-serif" font-size="13" font-weight="700" fill="#2F2A88">Asset suggestion</text>
  <text x="284" y="360" font-family="Arial, sans-serif" font-size="12" fill="#6E6889">Generate a launch summary sheet for reps.</text>
  <rect x="284" y="378" width="90" height="18" rx="9" fill="#2563EB"/>
  <text x="329" y="391" text-anchor="middle" font-family="Arial, sans-serif" font-size="10" font-weight="700" fill="white">Generate</text>

  <rect x="462" y="184" width="128" height="196" rx="16" fill="#F8F7FF" stroke="#DDD5FB"/>
  <text x="476" y="210" font-family="Arial, sans-serif" font-size="13" font-weight="700" fill="#2F2A88">Ask AI</text>
  <text x="476" y="232" font-family="Arial, sans-serif" font-size="12" fill="#6E6889">How can I make this differentiation sharper for SaaS founders?</text>
  <rect x="476" y="314" width="100" height="24" rx="12" fill="#6D5EF3"/>
  <text x="526" y="330" text-anchor="middle" font-family="Arial, sans-serif" font-size="11" font-weight="700" fill="white">Send prompt</text>

  <rect x="462" y="396" width="128" height="150" rx="16" fill="white" stroke="#DDD5FB"/>
  <text x="476" y="422" font-family="Arial, sans-serif" font-size="13" font-weight="700" fill="#2F2A88">AI answer</text>
  <text x="476" y="444" font-family="Arial, sans-serif" font-size="12" fill="#6E6889">Lead with the buyer pain, then connect the product benefit to a measurable outcome.</text>

  <text x="24" y="742" font-family="Arial, sans-serif" font-size="18" font-weight="700" fill="#5D58D6">Mockup C</text>
  <text x="116" y="742" font-family="Arial, sans-serif" font-size="15" fill="#746FA8">Two separate expanded mini-panels side by side</text>
</svg>
