<svg width="1500" height="860" viewBox="0 0 1500 860" fill="none" xmlns="http://www.w3.org/2000/svg">
  <rect width="1500" height="860" fill="#F7F5FF"/>

  <text x="40" y="42" font-family="Arial, sans-serif" font-size="28" font-weight="800" fill="#443B9B">Right Rail Folder Concept</text>
  <text x="40" y="72" font-family="Arial, sans-serif" font-size="16" fill="#756FA8">Two stacked right-rail cards when collapsed. Each opens as its own separate right panel, no overlay.</text>

  <text x="90" y="120" font-family="Arial, sans-serif" font-size="22" font-weight="700" fill="#5D58D6">Collapsed</text>
  <text x="820" y="120" font-family="Arial, sans-serif" font-size="22" font-weight="700" fill="#5D58D6">Expanded</text>

  <rect x="40" y="150" width="640" height="650" rx="24" fill="#FAF9FF" stroke="#D9D1FB"/>
  <rect x="40" y="150" width="120" height="650" fill="#EEEAFE"/>
  <line x1="160.5" y1="150" x2="160.5" y2="800" stroke="#D9D1FB"/>
  <rect x="160" y="150" width="430" height="650" fill="#FCFBFF"/>
  <line x1="590.5" y1="150" x2="590.5" y2="800" stroke="#D9D1FB"/>
  <rect x="590" y="150" width="90" height="650" fill="white"/>

  <rect x="607" y="222" width="56" height="144" rx="16" fill="white" stroke="#6D5EF3" stroke-width="2"/>
  <rect x="618" y="236" width="34" height="34" rx="12" fill="#F5F2FF" stroke="#D6CDFC"/>
  <text x="635" y="258" text-anchor="middle" font-family="Arial, sans-serif" font-size="16" font-weight="700" fill="#1A1A1A">✦</text>
  <text x="638" y="330" text-anchor="middle" transform="rotate(-90 638 330)" font-family="Arial, sans-serif" font-size="14" font-weight="800" fill="#2F2A88">AI ASSISTANT</text>
  <circle cx="635" cy="385" r="13" fill="#FFF7E8"/>
  <text x="635" y="389" text-anchor="middle" font-family="Arial, sans-serif" font-size="10" font-weight="800" fill="#D97706">2</text>

  <rect x="607" y="392" width="56" height="144" rx="16" fill="white" stroke="#6D5EF3" stroke-width="2"/>
  <rect x="618" y="406" width="34" height="34" rx="12" fill="#F5F2FF" stroke="#D6CDFC"/>
  <text x="635" y="428" text-anchor="middle" font-family="Arial, sans-serif" font-size="16" font-weight="700" fill="#1A1A1A">✎</text>
  <text x="638" y="500" text-anchor="middle" transform="rotate(-90 638 500)" font-family="Arial, sans-serif" font-size="14" font-weight="800" fill="#2F2A88">ASK AI</text>

  <rect x="740" y="150" width="720" height="650" rx="24" fill="#FAF9FF" stroke="#D9D1FB"/>
  <rect x="740" y="150" width="120" height="650" fill="#EEEAFE"/>
  <line x1="860.5" y1="150" x2="860.5" y2="800" stroke="#D9D1FB"/>
  <rect x="860" y="150" width="300" height="650" fill="#FCFBFF"/>
  <line x1="1160.5" y1="150" x2="1160.5" y2="800" stroke="#D9D1FB"/>
  <rect x="1160" y="150" width="160" height="650" fill="white"/>
  <line x1="1320.5" y1="150" x2="1320.5" y2="800" stroke="#D9D1FB"/>
  <rect x="1320" y="150" width="140" height="650" fill="white"/>

  <rect x="1176" y="176" width="128" height="598" rx="22" fill="white" stroke="#DDD5FB"/>
  <rect x="1190" y="192" width="100" height="72" rx="16" fill="#FCFBFF" stroke="#E3DDFC"/>
  <text x="1204" y="220" font-family="Arial, sans-serif" font-size="16" font-weight="700" fill="#2F2A88">AI Assistant</text>
  <text x="1204" y="241" font-family="Arial, sans-serif" font-size="11" fill="#7A75A7">Flags and suggestions</text>
  <circle cx="1270" cy="222" r="14" fill="#FFF7E8"/>
  <text x="1270" y="226" text-anchor="middle" font-family="Arial, sans-serif" font-size="10" font-weight="800" fill="#D97706">2</text>
  <rect x="1190" y="282" width="100" height="108" rx="16" fill="#FFF9EF" stroke="#F3D48C"/>
  <text x="1202" y="308" font-family="Arial, sans-serif" font-size="12" font-weight="700" fill="#2F2A88">Review needed</text>
  <text x="1202" y="328" font-family="Arial, sans-serif" font-size="11" fill="#6E6889">Positioning still needs sharper differentiation.</text>
  <rect x="1202" y="348" width="56" height="16" rx="8" fill="#F59E0B"/>
  <text x="1230" y="360" text-anchor="middle" font-family="Arial, sans-serif" font-size="9" font-weight="700" fill="white">Open</text>
  <rect x="1190" y="404" width="100" height="108" rx="16" fill="#F8FBFF" stroke="#C9DFFD"/>
  <text x="1202" y="430" font-family="Arial, sans-serif" font-size="12" font-weight="700" fill="#2F2A88">Asset suggestion</text>
  <text x="1202" y="450" font-family="Arial, sans-serif" font-size="11" fill="#6E6889">Generate a concise launch summary for sales.</text>
  <rect x="1202" y="470" width="64" height="16" rx="8" fill="#2563EB"/>
  <text x="1234" y="482" text-anchor="middle" font-family="Arial, sans-serif" font-size="9" font-weight="700" fill="white">Generate</text>

  <rect x="1336" y="176" width="108" height="598" rx="22" fill="white" stroke="#DDD5FB"/>
  <rect x="1350" y="192" width="80" height="72" rx="16" fill="#FCFBFF" stroke="#E3DDFC"/>
  <text x="1362" y="220" font-family="Arial, sans-serif" font-size="16" font-weight="700" fill="#2F2A88">Ask AI</text>
  <text x="1362" y="241" font-family="Arial, sans-serif" font-size="11" fill="#7A75A7">Prompt space</text>
  <rect x="1350" y="282" width="80" height="140" rx="16" fill="#F8F7FF" stroke="#DDD5FB"/>
  <text x="1360" y="306" font-family="Arial, sans-serif" font-size="12" font-weight="700" fill="#2F2A88">Prompt</text>
  <text x="1360" y="326" font-family="Arial, sans-serif" font-size="11" fill="#6E6889">How do I sharpen this message for SaaS founders?</text>
  <rect x="1358" y="392" width="64" height="18" rx="9" fill="#6D5EF3"/>
  <text x="1390" y="405" text-anchor="middle" font-family="Arial, sans-serif" font-size="9" font-weight="700" fill="white">Ask</text>
  <rect x="1350" y="438" width="80" height="150" rx="16" fill="white" stroke="#DDD5FB"/>
  <text x="1360" y="462" font-family="Arial, sans-serif" font-size="12" font-weight="700" fill="#2F2A88">Answer</text>
  <text x="1360" y="482" font-family="Arial, sans-serif" font-size="11" fill="#6E6889">Lead with the pain, then support the claim with proof.</text>

  <path d="M693 468C713 468 723 468 740 468" stroke="#8B80E8" stroke-width="3" stroke-dasharray="10 10"/>
  <polygon points="740,468 726,460 726,476" fill="#8B80E8"/>

  <text x="690" y="440" font-family="Arial, sans-serif" font-size="15" font-weight="700" fill="#5D58D6">Opens into two separate panels</text>
  <text x="690" y="462" font-family="Arial, sans-serif" font-size="14" fill="#746FA8">No overlay, no stacking on top of each other</text>
</svg>
