<svg width="1440" height="900" viewBox="0 0 1440 900" fill="none" xmlns="http://www.w3.org/2000/svg">
  <rect width="1440" height="900" fill="#F7F5FF"/>
  <rect x="0" y="0" width="1440" height="46" fill="#F3F1FA"/>
  <rect x="0" y="46" width="1440" height="854" fill="#FAF9FF"/>

  <rect x="0" y="96" width="230" height="804" fill="#EEEAFE"/>
  <line x1="230.5" y1="96" x2="230.5" y2="900" stroke="#D8D0F9"/>
  <text x="12" y="148" font-family="Arial, sans-serif" font-size="36" font-weight="800" fill="#433B9B">LOOP</text>
  <text x="16" y="202" font-family="Arial, sans-serif" font-size="14" font-weight="700" fill="#7A75A7">WORKSPACE</text>
  <rect x="0" y="224" width="230" height="34" fill="#DED8FA"/>
  <text x="12" y="246" font-family="Arial, sans-serif" font-size="14" font-weight="700" fill="#544BC7">◌ Product Truth</text>
  <text x="22" y="278" font-family="Arial, sans-serif" font-size="13" fill="#7A75A7">- Product Overview</text>
  <text x="22" y="307" font-family="Arial, sans-serif" font-size="13" fill="#7A75A7">- Problem Statement</text>
  <text x="22" y="336" font-family="Arial, sans-serif" font-size="13" fill="#7A75A7">- Solution</text>
  <text x="22" y="365" font-family="Arial, sans-serif" font-size="13" fill="#7A75A7">- Audience</text>
  <text x="22" y="394" font-family="Arial, sans-serif" font-size="13" fill="#7A75A7">- Differentiation</text>
  <text x="22" y="423" font-family="Arial, sans-serif" font-size="13" fill="#7A75A7">- Features</text>
  <text x="22" y="452" font-family="Arial, sans-serif" font-size="13" fill="#7A75A7">- Capabilities</text>
  <text x="22" y="481" font-family="Arial, sans-serif" font-size="13" fill="#7A75A7">- Competitors</text>
  <text x="22" y="510" font-family="Arial, sans-serif" font-size="13" fill="#7A75A7">- Add Sections</text>

  <rect x="454" y="62" width="526" height="54" rx="16" fill="#ECE7FF" stroke="#D6CDFC"/>
  <rect x="465" y="70" width="76" height="38" rx="12" fill="white"/>
  <text x="503" y="94" text-anchor="middle" font-family="Arial, sans-serif" font-size="14" font-weight="700" fill="#5D58D6">Loop</text>
  <text x="638" y="94" text-anchor="middle" font-family="Arial, sans-serif" font-size="14" fill="#6F6AA8">Narrative Intelligence</text>
  <text x="787" y="94" text-anchor="middle" font-family="Arial, sans-serif" font-size="14" fill="#6F6AA8">Brand Guideline</text>
  <text x="919" y="94" text-anchor="middle" font-family="Arial, sans-serif" font-size="14" fill="#6F6AA8">Community</text>

  <rect x="230" y="96" width="1120" height="96" fill="white"/>
  <line x1="230" y1="192.5" x2="1350" y2="192.5" stroke="#D8D0F9"/>
  <circle cx="266" cy="128" r="12" fill="#ECE7FF"/>
  <text x="266" y="133" text-anchor="middle" font-family="Arial, sans-serif" font-size="14" font-weight="700" fill="#675DDF">∞</text>
  <text x="290" y="133" font-family="Arial, sans-serif" font-size="18" font-weight="700" fill="#6C6870">Product Name</text>
  <text x="1140" y="133" font-family="Arial, sans-serif" font-size="18" font-weight="700" fill="#6C6870">Add one-line description</text>
  <rect x="1268" y="117" width="54" height="30" rx="9" fill="white" stroke="#D8D0F9"/>
  <text x="1295" y="136" text-anchor="middle" font-family="Arial, sans-serif" font-size="13" fill="#4F4A54">Log In</text>

  <rect x="530" y="208" width="334" height="40" rx="12" fill="#ECE7FF" stroke="#D6CDFC"/>
  <rect x="540" y="214" width="102" height="28" rx="9" fill="white"/>
  <text x="591" y="232" text-anchor="middle" font-family="Arial, sans-serif" font-size="13" font-weight="700" fill="#5D58D6">Product Truth</text>
  <text x="704" y="232" text-anchor="middle" font-family="Arial, sans-serif" font-size="13" fill="#6F6AA8">Core Narrative</text>
  <text x="780" y="232" text-anchor="middle" font-family="Arial, sans-serif" font-size="13" fill="#6F6AA8">GTM</text>
  <text x="842" y="232" text-anchor="middle" font-family="Arial, sans-serif" font-size="13" fill="#6F6AA8">Assets</text>
  <text x="909" y="232" text-anchor="middle" font-family="Arial, sans-serif" font-size="13" fill="#6F6AA8">Feedback</text>

  <text x="258" y="286" font-family="Arial, sans-serif" font-size="26" font-weight="700" fill="#302A88">Product Truth</text>
  <rect x="258" y="314" width="920" height="520" rx="18" fill="white" stroke="#DDD5FB"/>
  <rect x="278" y="356" width="880" height="120" rx="18" fill="#F8F7FF" stroke="#DDD5FB"/>
  <text x="300" y="382" font-family="Arial, sans-serif" font-size="11" font-weight="800" fill="#4A449A">PRODUCT TRUTH</text>
  <text x="300" y="420" font-family="Arial, sans-serif" font-size="24" font-weight="800" fill="#302A88">Build your product truth one section at a time</text>
  <text x="300" y="446" font-family="Arial, sans-serif" font-size="14" fill="#7A75A7">Use the nested sections on the left to define the product, problem, solution, audience, capabilities, and</text>
  <text x="300" y="468" font-family="Arial, sans-serif" font-size="14" fill="#7A75A7">competitive context. Each section is a focused canvas workspace.</text>

  <rect x="278" y="494" width="205" height="140" rx="16" fill="white" stroke="#DDD5FB"/>
  <rect x="495" y="494" width="205" height="140" rx="16" fill="white" stroke="#DDD5FB"/>
  <rect x="712" y="494" width="205" height="140" rx="16" fill="white" stroke="#DDD5FB"/>
  <rect x="929" y="494" width="205" height="140" rx="16" fill="white" stroke="#DDD5FB"/>
  <text x="292" y="520" font-family="Arial, sans-serif" font-size="11" font-weight="800" fill="#4A449A">PRODUCT OVERVIEW</text>
  <text x="509" y="520" font-family="Arial, sans-serif" font-size="11" font-weight="800" fill="#4A449A">PROBLEM STATEMENT</text>
  <text x="726" y="520" font-family="Arial, sans-serif" font-size="11" font-weight="800" fill="#4A449A">SOLUTION</text>
  <text x="943" y="520" font-family="Arial, sans-serif" font-size="11" font-weight="800" fill="#4A449A">AUDIENCE</text>

  <line x1="1200.5" y1="246" x2="1200.5" y2="834" stroke="#D8D0F9"/>
  <rect x="1222" y="282" width="92" height="122" rx="14" fill="white" stroke="#6D5EF3" stroke-width="2"/>
  <rect x="1243" y="298" width="50" height="50" rx="16" fill="#F6F3FF" stroke="#D6CDFC"/>
  <text x="1268" y="329" text-anchor="middle" font-family="Arial, sans-serif" font-size="22" font-weight="700" fill="#151515">✦</text>
  <text x="1270" y="386" text-anchor="middle" transform="rotate(-90 1270 386)" font-family="Arial, sans-serif" font-size="16" font-weight="800" fill="#302A88">AI ASSISTANT</text>
  <circle cx="1268" cy="430" r="17" fill="#FFF7E8"/>
  <text x="1268" y="435" text-anchor="middle" font-family="Arial, sans-serif" font-size="12" font-weight="800" fill="#D97706">0</text>

  <rect x="1222" y="430" width="92" height="122" rx="14" fill="white" stroke="#6D5EF3" stroke-width="2"/>
  <rect x="1243" y="446" width="50" height="50" rx="16" fill="#F6F3FF" stroke="#D6CDFC"/>
  <text x="1268" y="477" text-anchor="middle" font-family="Arial, sans-serif" font-size="22" font-weight="700" fill="#151515">✎</text>
  <text x="1270" y="534" text-anchor="middle" transform="rotate(-90 1270 534)" font-family="Arial, sans-serif" font-size="16" font-weight="800" fill="#302A88">ASK AI</text>

  <text x="24" y="866" font-family="Arial, sans-serif" font-size="18" font-weight="700" fill="#5D58D6">Collapsed</text>
  <text x="118" y="866" font-family="Arial, sans-serif" font-size="16" fill="#746FA8">Two stacked right-rail cards, no overlay</text>
</svg>
