<svg width="560" height="780" viewBox="0 0 560 780" fill="none" xmlns="http://www.w3.org/2000/svg">
  <rect width="560" height="780" fill="#F6F4FF"/>
  <rect x="0" y="0" width="270" height="780" fill="#FAF9FF"/>
  <line x1="270.5" y1="0" x2="270.5" y2="780" stroke="#D9D1FB"/>

  <rect x="284" y="18" width="258" height="48" rx="16" fill="#ECE7FF" stroke="#D6CDFC"/>
  <rect x="292" y="24" width="120" height="36" rx="12" fill="white"/>
  <text x="352" y="47" text-anchor="middle" font-family="Arial, sans-serif" font-size="14" font-weight="700" fill="#5D58D6">AI Assistant</text>
  <text x="473" y="47" text-anchor="middle" font-family="Arial, sans-serif" font-size="14" font-weight="600" fill="#746FA8">Ask AI</text>

  <rect x="284" y="82" width="258" height="680" rx="20" fill="white" stroke="#DDD5FB"/>
  <rect x="298" y="98" width="230" height="86" rx="16" fill="#F8F7FF" stroke="#DDD5FB"/>
  <text x="316" y="124" font-family="Arial, sans-serif" font-size="18" font-weight="700" fill="#2F2A88">AI Assistant</text>
  <text x="316" y="146" font-family="Arial, sans-serif" font-size="12" fill="#6E6889">Review, suggestions, and next best actions</text>
  <circle cx="502" cy="128" r="18" fill="#FFF6E6"/>
  <text x="502" y="133" text-anchor="middle" font-family="Arial, sans-serif" font-size="11" font-weight="800" fill="#D97706">4</text>

  <rect x="298" y="202" width="108" height="30" rx="12" fill="#EEEAFE"/>
  <text x="352" y="221" text-anchor="middle" font-family="Arial, sans-serif" font-size="12" font-weight="700" fill="#5D58D6">Alerts (4)</text>
  <rect x="416" y="202" width="112" height="30" rx="12" fill="#F7F5FF"/>
  <text x="472" y="221" text-anchor="middle" font-family="Arial, sans-serif" font-size="12" font-weight="700" fill="#7B7699">Suggestions</text>

  <rect x="298" y="248" width="230" height="96" rx="16" fill="#FFF9EF" stroke="#F3D48C"/>
  <text x="314" y="274" font-family="Arial, sans-serif" font-size="13" font-weight="700" fill="#2F2A88">Message review</text>
  <text x="314" y="296" font-family="Arial, sans-serif" font-size="12" fill="#6E6889">Messaging pillars are still too generic for B2B buyers.</text>
  <rect x="314" y="312" width="84" height="18" rx="9" fill="#F59E0B"/>
  <text x="356" y="325" text-anchor="middle" font-family="Arial, sans-serif" font-size="10" font-weight="700" fill="white">Review now</text>

  <rect x="298" y="358" width="230" height="96" rx="16" fill="#F8FBFF" stroke="#C9DFFD"/>
  <text x="314" y="384" font-family="Arial, sans-serif" font-size="13" font-weight="700" fill="#2F2A88">Asset update</text>
  <text x="314" y="406" font-family="Arial, sans-serif" font-size="12" fill="#6E6889">Landing page hero copy should be refreshed from the new headline.</text>
  <rect x="314" y="422" width="94" height="18" rx="9" fill="#2563EB"/>
  <text x="361" y="435" text-anchor="middle" font-family="Arial, sans-serif" font-size="10" font-weight="700" fill="white">Draft copy</text>

  <rect x="298" y="470" width="230" height="96" rx="16" fill="#F8F7FF" stroke="#DDD5FB"/>
  <text x="314" y="496" font-family="Arial, sans-serif" font-size="13" font-weight="700" fill="#2F2A88">Proof points gap</text>
  <text x="314" y="518" font-family="Arial, sans-serif" font-size="12" fill="#6E6889">Add a stronger metric before publishing this version.</text>
  <rect x="314" y="534" width="96" height="18" rx="9" fill="#6D5EF3"/>
  <text x="362" y="547" text-anchor="middle" font-family="Arial, sans-serif" font-size="10" font-weight="700" fill="white">Open section</text>

  <text x="24" y="742" font-family="Arial, sans-serif" font-size="18" font-weight="700" fill="#5D58D6">Mockup B</text>
  <text x="116" y="742" font-family="Arial, sans-serif" font-size="15" fill="#746FA8">A wider expanded panel with two tabs in one header</text>
</svg>
