<svg width="520" height="780" viewBox="0 0 520 780" fill="none" xmlns="http://www.w3.org/2000/svg">
  <rect width="520" height="780" fill="#F6F4FF"/>
  <rect x="0" y="0" width="320" height="780" fill="#FAF9FF"/>
  <line x1="320.5" y1="0" x2="320.5" y2="780" stroke="#D9D1FB"/>

  <rect x="334" y="18" width="170" height="48" rx="16" fill="#ECE7FF" stroke="#D6CDFC"/>
  <rect x="342" y="24" width="80" height="36" rx="12" fill="white"/>
  <text x="382" y="47" text-anchor="middle" font-family="Arial, sans-serif" font-size="14" font-weight="700" fill="#5D58D6">Assistant</text>
  <text x="461" y="47" text-anchor="middle" font-family="Arial, sans-serif" font-size="14" font-weight="600" fill="#746FA8">Ask AI</text>

  <rect x="334" y="82" width="170" height="680" rx="20" fill="white" stroke="#DDD5FB"/>
  <rect x="334" y="82" width="170" height="70" rx="20" fill="#FCFBFF"/>
  <line x1="334" y1="152.5" x2="504" y2="152.5" stroke="#E3DDFC"/>
  <text x="352" y="111" font-family="Arial, sans-serif" font-size="18" font-weight="700" fill="#2F2A88">AI Assistant</text>
  <text x="352" y="132" font-family="Arial, sans-serif" font-size="12" fill="#7B7699">Flags, suggestions, approvals</text>
  <circle cx="474" cy="116" r="16" fill="#FFF6E6"/>
  <text x="474" y="121" text-anchor="middle" font-family="Arial, sans-serif" font-size="11" font-weight="800" fill="#D97706">3</text>

  <rect x="350" y="170" width="138" height="92" rx="16" fill="#FFF9EF" stroke="#F3D48C"/>
  <text x="364" y="196" font-family="Arial, sans-serif" font-size="13" font-weight="700" fill="#2F2A88">Review needed</text>
  <text x="364" y="218" font-family="Arial, sans-serif" font-size="12" fill="#6E6889">Positioning needs clearer differentiation.</text>
  <rect x="364" y="232" width="72" height="18" rx="9" fill="#F59E0B"/>
  <text x="400" y="245" text-anchor="middle" font-family="Arial, sans-serif" font-size="10" font-weight="700" fill="white">Open</text>

  <rect x="350" y="276" width="138" height="92" rx="16" fill="#F8F7FF" stroke="#DDD5FB"/>
  <text x="364" y="302" font-family="Arial, sans-serif" font-size="13" font-weight="700" fill="#2F2A88">Suggestion</text>
  <text x="364" y="324" font-family="Arial, sans-serif" font-size="12" fill="#6E6889">Add stronger proof points to support claims.</text>
  <rect x="364" y="338" width="84" height="18" rx="9" fill="#6D5EF3"/>
  <text x="406" y="351" text-anchor="middle" font-family="Arial, sans-serif" font-size="10" font-weight="700" fill="white">Generate</text>

  <rect x="350" y="382" width="138" height="92" rx="16" fill="#F8FBFF" stroke="#C9DFFD"/>
  <text x="364" y="408" font-family="Arial, sans-serif" font-size="13" font-weight="700" fill="#2F2A88">Asset idea</text>
  <text x="364" y="430" font-family="Arial, sans-serif" font-size="12" fill="#6E6889">Create a one-page launch summary for sales.</text>
  <rect x="364" y="444" width="76" height="18" rx="9" fill="#2563EB"/>
  <text x="402" y="457" text-anchor="middle" font-family="Arial, sans-serif" font-size="10" font-weight="700" fill="white">Draft asset</text>

  <text x="24" y="742" font-family="Arial, sans-serif" font-size="18" font-weight="700" fill="#5D58D6">Mockup A</text>
  <text x="116" y="742" font-family="Arial, sans-serif" font-size="15" fill="#746FA8">Two small tabs, one panel expanded at a time</text>
</svg>
