<svg width="1260" height="820" viewBox="0 0 1260 820" fill="none" xmlns="http://www.w3.org/2000/svg">
  <defs>
    <linearGradient id="bg" x1="86" y1="34" x2="1120" y2="780" gradientUnits="userSpaceOnUse">
      <stop stop-color="#FBFAFF"/>
      <stop offset="1" stop-color="#F2EEFF"/>
    </linearGradient>
    <linearGradient id="hero" x1="74" y1="34" x2="1174" y2="164" gradientUnits="userSpaceOnUse">
      <stop stop-color="#FFFFFF"/>
      <stop offset="1" stop-color="#F5F1FF"/>
    </linearGradient>
    <linearGradient id="cta" x1="0" y1="0" x2="220" y2="54" gradientUnits="userSpaceOnUse">
      <stop stop-color="#6A5AE0"/>
      <stop offset="1" stop-color="#4D41B8"/>
    </linearGradient>
    <filter id="shadow" x="32" y="18" width="1196" height="764" filterUnits="userSpaceOnUse" color-interpolation-filters="sRGB">
      <feDropShadow dx="0" dy="18" stdDeviation="22" flood-color="#5548B4" flood-opacity="0.08"/>
    </filter>
  </defs>

  <rect width="1260" height="820" fill="url(#bg)"/>

  <g filter="url(#shadow)">
    <rect x="44" y="28" width="1172" height="742" rx="30" fill="#FFFFFF" stroke="#DED9FB"/>
  </g>

  <rect x="68" y="52" width="1124" height="122" rx="28" fill="url(#hero)" stroke="#DED9FB"/>
  <text x="94" y="84" fill="#5449B8" font-family="Arial, sans-serif" font-size="13" font-weight="800" letter-spacing="1.3">WORKFLOW</text>
  <text x="94" y="123" fill="#241B63" font-family="Arial, sans-serif" font-size="34" font-weight="800">Launch from one approved source of truth.</text>
  <text x="94" y="149" fill="#756EB9" font-family="Arial, sans-serif" font-size="15">Stage: Launch · 80% complete · Feedback comes next</text>

  <rect x="94" y="178" width="770" height="10" rx="5" fill="#ECE8FF"/>
  <rect x="94" y="178" width="608" height="10" rx="5" fill="#6658D7"/>

  <rect x="902" y="76" width="192" height="52" rx="18" fill="url(#cta)"/>
  <text x="946" y="109" fill="#FFFFFF" font-family="Arial, sans-serif" font-size="20" font-weight="700">Launch Product</text>
  <rect x="1108" y="76" width="72" height="52" rx="18" fill="#FFFFFF" stroke="#DED9FB"/>
  <text x="1130" y="109" fill="#281F69" font-family="Arial, sans-serif" font-size="18" font-weight="700">•••</text>

  <rect x="68" y="208" width="1124" height="54" rx="20" fill="#F2EEFF" stroke="#DED9FB"/>
  <rect x="84" y="218" width="156" height="34" rx="14" fill="#FFFFFF"/>
  <text x="110" y="240" fill="#5449B8" font-family="Arial, sans-serif" font-size="16" font-weight="700">Product Truth</text>
  <text x="272" y="240" fill="#6E67B6" font-family="Arial, sans-serif" font-size="16" font-weight="600">Core Narrative</text>
  <text x="432" y="240" fill="#6E67B6" font-family="Arial, sans-serif" font-size="16" font-weight="600">GTM</text>
  <text x="512" y="240" fill="#6E67B6" font-family="Arial, sans-serif" font-size="16" font-weight="600">Assets</text>
  <text x="612" y="240" fill="#6E67B6" font-family="Arial, sans-serif" font-size="16" font-weight="600">Feedback</text>

  <text x="84" y="312" fill="#241B63" font-family="Arial, sans-serif" font-size="36" font-weight="800">Product Truth</text>
  <text x="84" y="340" fill="#756EB9" font-family="Arial, sans-serif" font-size="16">Refine the essential truth first, then move the narrative forward.</text>

  <rect x="84" y="370" width="1092" height="72" rx="22" fill="#F8F6FF" stroke="#D6D0FB"/>
  <circle cx="114" cy="406" r="8" fill="#FFB24F"/>
  <text x="132" y="411" fill="#3E348E" font-family="Arial, sans-serif" font-size="19" font-weight="700">AI draft is ready. Review the signal-rich sections, then continue.</text>

  <rect x="84" y="468" width="222" height="56" rx="18" fill="url(#cta)"/>
  <text x="120" y="502" fill="#FFFFFF" font-family="Arial, sans-serif" font-size="20" font-weight="700">Save &amp; Continue</text>
  <rect x="320" y="468" width="156" height="56" rx="18" fill="#FFFFFF" stroke="#DED9FB"/>
  <text x="350" y="502" fill="#281F69" font-family="Arial, sans-serif" font-size="19" font-weight="700">Save Project</text>
  <rect x="490" y="468" width="110" height="56" rx="18" fill="#FFFFFF" stroke="#DED9FB"/>
  <text x="523" y="502" fill="#281F69" font-family="Arial, sans-serif" font-size="19" font-weight="700">More</text>

  <rect x="912" y="468" width="264" height="144" rx="24" fill="#FCFBFF" stroke="#DED9FB"/>
  <text x="940" y="500" fill="#5449B8" font-family="Arial, sans-serif" font-size="13" font-weight="800" letter-spacing="1.2">WORKSPACE STATUS</text>
  <text x="940" y="536" fill="#241B63" font-family="Arial, sans-serif" font-size="20" font-weight="800">Version published</text>
  <text x="940" y="566" fill="#756EB9" font-family="Arial, sans-serif" font-size="15">No blockers. Ready to move toward feedback.</text>
  <text x="940" y="594" fill="#756EB9" font-family="Arial, sans-serif" font-size="15">Last saved: 2 minutes ago</text>

  <rect x="84" y="554" width="788" height="182" rx="24" fill="#FFFFFF" stroke="#DED9FB"/>
  <text x="112" y="590" fill="#5449B8" font-family="Arial, sans-serif" font-size="13" font-weight="800" letter-spacing="1.2">PRODUCT OVERVIEW</text>
  <rect x="112" y="610" width="732" height="96" rx="18" fill="#FBFAFF" stroke="#DED9FB"/>
  <text x="136" y="646" fill="#241B63" font-family="Arial, sans-serif" font-size="18">An upscale air-tight food container lid made of organic neem wood for premium hotel use.</text>
  <text x="136" y="674" fill="#241B63" font-family="Arial, sans-serif" font-size="18">It improves hygiene, preserves freshness, and feels more premium than generic plastic lids.</text>
</svg>
