<svg width="1260" height="820" viewBox="0 0 1260 820" fill="none" xmlns="http://www.w3.org/2000/svg">
  <defs>
    <linearGradient id="hybridBg" x1="48" y1="26" x2="1210" y2="790" gradientUnits="userSpaceOnUse">
      <stop stop-color="#FBFAFF"/>
      <stop offset="1" stop-color="#F2EEFF"/>
    </linearGradient>
    <linearGradient id="hybridHero" x1="70" y1="36" x2="1190" y2="168" gradientUnits="userSpaceOnUse">
      <stop stop-color="#FFFFFF"/>
      <stop offset="1" stop-color="#F4F0FF"/>
    </linearGradient>
    <linearGradient id="hybridCta" x1="0" y1="0" x2="220" y2="54" gradientUnits="userSpaceOnUse">
      <stop stop-color="#6557D8"/>
      <stop offset="1" stop-color="#4F42BC"/>
    </linearGradient>
  </defs>

  <rect width="1260" height="820" fill="url(#hybridBg)"/>

  <rect x="46" y="30" width="1168" height="128" rx="28" fill="url(#hybridHero)" stroke="#D8D4F7"/>
  <text x="78" y="70" fill="#564CB5" font-family="Arial, sans-serif" font-size="13" font-weight="800" letter-spacing="1.2">WORKFLOW</text>
  <text x="78" y="112" fill="#241D63" font-family="Arial, sans-serif" font-size="32" font-weight="800">Go live from one approved source of truth.</text>
  <text x="78" y="140" fill="#756DBB" font-family="Arial, sans-serif" font-size="15">Launch stage · 80% complete · Feedback comes next</text>

  <rect x="78" y="170" width="786" height="10" rx="5" fill="#E7E2FB"/>
  <rect x="78" y="170" width="616" height="10" rx="5" fill="#695CD8"/>

  <rect x="916" y="76" width="190" height="52" rx="18" fill="url(#hybridCta)"/>
  <text x="958" y="108" fill="#FFFFFF" font-family="Arial, sans-serif" font-size="20" font-weight="700">Launch Product</text>
  <rect x="1120" y="76" width="74" height="52" rx="18" fill="#FFFFFF" stroke="#D8D4F7"/>
  <text x="1140" y="108" fill="#241D63" font-family="Arial, sans-serif" font-size="16" font-weight="700">Hub</text>

  <rect x="46" y="176" width="1168" height="610" rx="30" fill="#FFFFFF" stroke="#D8D4F7"/>

  <rect x="70" y="202" width="1120" height="60" rx="22" fill="#F0EDFF" stroke="#D8D4F7"/>
  <rect x="84" y="214" width="160" height="36" rx="16" fill="#FFFFFF"/>
  <text x="112" y="237" fill="#564CB5" font-family="Arial, sans-serif" font-size="16" font-weight="700">Product Truth</text>
  <text x="276" y="237" fill="#6F68B7" font-family="Arial, sans-serif" font-size="16" font-weight="600">Core Narrative</text>
  <text x="438" y="237" fill="#6F68B7" font-family="Arial, sans-serif" font-size="16" font-weight="600">GTM</text>
  <text x="520" y="237" fill="#6F68B7" font-family="Arial, sans-serif" font-size="16" font-weight="600">Assets</text>
  <text x="620" y="237" fill="#6F68B7" font-family="Arial, sans-serif" font-size="16" font-weight="600">Feedback</text>

  <text x="84" y="314" fill="#241D63" font-family="Arial, sans-serif" font-size="35" font-weight="800">Product Truth</text>
  <text x="84" y="342" fill="#756DBB" font-family="Arial, sans-serif" font-size="15">Use the AI draft as your starting point, then refine only what matters.</text>

  <rect x="84" y="374" width="836" height="70" rx="20" fill="#F8F7FF" stroke="#D5D0F8"/>
  <circle cx="112" cy="409" r="7" fill="#FFB24F"/>
  <text x="130" y="414" fill="#40368E" font-family="Arial, sans-serif" font-size="18" font-weight="700">Draft generated — refine, save, and continue to the next workspace.</text>

  <rect x="84" y="470" width="220" height="56" rx="18" fill="url(#hybridCta)"/>
  <text x="120" y="504" fill="#FFFFFF" font-family="Arial, sans-serif" font-size="20" font-weight="700">Save &amp; Continue</text>
  <rect x="318" y="470" width="152" height="56" rx="18" fill="#FFFFFF" stroke="#D8D4F7"/>
  <text x="348" y="504" fill="#241D63" font-family="Arial, sans-serif" font-size="19" font-weight="700">Save Project</text>
  <rect x="484" y="470" width="108" height="56" rx="18" fill="#FFFFFF" stroke="#D8D4F7"/>
  <text x="518" y="504" fill="#241D63" font-family="Arial, sans-serif" font-size="19" font-weight="700">More</text>

  <rect x="948" y="374" width="226" height="152" rx="22" fill="#FBFAFF" stroke="#D8D4F7"/>
  <text x="974" y="406" fill="#564CB5" font-family="Arial, sans-serif" font-size="12" font-weight="800" letter-spacing="1.2">WORKSPACE STATUS</text>
  <text x="974" y="442" fill="#241D63" font-family="Arial, sans-serif" font-size="20" font-weight="800">Published and ready</text>
  <text x="974" y="470" fill="#756DBB" font-family="Arial, sans-serif" font-size="15">This version is ready to move into feedback.</text>
  <text x="974" y="498" fill="#756DBB" font-family="Arial, sans-serif" font-size="15">Saved 2 minutes ago</text>

  <rect x="84" y="552" width="1090" height="206" rx="24" fill="#FFFFFF" stroke="#D8D4F7"/>
  <text x="112" y="590" fill="#564CB5" font-family="Arial, sans-serif" font-size="13" font-weight="800" letter-spacing="1.1">PRODUCT OVERVIEW</text>
  <rect x="112" y="610" width="1016" height="108" rx="18" fill="#FBFAFF" stroke="#D8D4F7"/>
  <text x="136" y="648" fill="#241D63" font-family="Arial, sans-serif" font-size="18">An upscale earthy air-tight food container lid made of organic neem wood for hotels.</text>
  <text x="136" y="676" fill="#241D63" font-family="Arial, sans-serif" font-size="18">Neem is naturally anti-bacterial, keeps food safer and fresher, and feels more premium than generic lids.</text>
</svg>
