<svg width="1440" height="900" viewBox="0 0 1440 900" fill="none" xmlns="http://www.w3.org/2000/svg">
  <defs>
    <linearGradient id="pageBg" x1="34" y1="22" x2="1388" y2="858" gradientUnits="userSpaceOnUse">
      <stop stop-color="#FBFAFF"/>
      <stop offset="1" stop-color="#F1EDFF"/>
    </linearGradient>
    <linearGradient id="headerGrad" x1="318" y1="24" x2="1394" y2="156" gradientUnits="userSpaceOnUse">
      <stop stop-color="#FFFFFF"/>
      <stop offset="1" stop-color="#F4F0FF"/>
    </linearGradient>
    <linearGradient id="ctaGrad" x1="0" y1="0" x2="224" y2="56" gradientUnits="userSpaceOnUse">
      <stop stop-color="#6659D9"/>
      <stop offset="1" stop-color="#4E42BC"/>
    </linearGradient>
  </defs>

  <rect width="1440" height="900" fill="url(#pageBg)"/>

  <rect x="18" y="20" width="254" height="860" rx="28" fill="#ECE8FF" stroke="#D8D4F7"/>
  <text x="42" y="62" fill="#564CB5" font-family="Arial, sans-serif" font-size="13" font-weight="800" letter-spacing="1.2">WORKSPACE</text>

  <rect x="36" y="88" width="218" height="42" rx="16" fill="#FFFFFF"/>
  <text x="58" y="114" fill="#241D63" font-family="Arial, sans-serif" font-size="17" font-weight="700">Neem Kosh</text>

  <rect x="32" y="154" width="226" height="286" rx="24" fill="#F7F5FF" stroke="#D8D4F7"/>
  <text x="50" y="188" fill="#564CB5" font-family="Arial, sans-serif" font-size="12" font-weight="800" letter-spacing="1.1">PRODUCT TRUTH</text>
  <rect x="44" y="204" width="202" height="36" rx="14" fill="#FFFFFF"/>
  <text x="62" y="227" fill="#564CB5" font-family="Arial, sans-serif" font-size="15" font-weight="700">Product Overview</text>
  <text x="62" y="270" fill="#6F68B7" font-family="Arial, sans-serif" font-size="15">Problem</text>
  <text x="62" y="308" fill="#6F68B7" font-family="Arial, sans-serif" font-size="15">Solution</text>
  <text x="62" y="346" fill="#6F68B7" font-family="Arial, sans-serif" font-size="15">Primary Audience</text>
  <text x="62" y="384" fill="#6F68B7" font-family="Arial, sans-serif" font-size="15">Differentiation</text>

  <rect x="32" y="456" width="226" height="188" rx="24" fill="#F7F5FF" stroke="#D8D4F7"/>
  <text x="50" y="490" fill="#564CB5" font-family="Arial, sans-serif" font-size="12" font-weight="800" letter-spacing="1.1">CORE NARRATIVE</text>
  <text x="62" y="532" fill="#6F68B7" font-family="Arial, sans-serif" font-size="15">Positioning</text>
  <text x="62" y="570" fill="#6F68B7" font-family="Arial, sans-serif" font-size="15">Value Proposition</text>
  <text x="62" y="608" fill="#6F68B7" font-family="Arial, sans-serif" font-size="15">Messaging</text>

  <rect x="32" y="660" width="226" height="196" rx="24" fill="#F7F5FF" stroke="#D8D4F7"/>
  <text x="50" y="694" fill="#564CB5" font-family="Arial, sans-serif" font-size="12" font-weight="800" letter-spacing="1.1">GTM + FEEDBACK</text>
  <text x="62" y="736" fill="#6F68B7" font-family="Arial, sans-serif" font-size="15">GTM</text>
  <text x="62" y="774" fill="#6F68B7" font-family="Arial, sans-serif" font-size="15">Assets</text>
  <text x="62" y="812" fill="#6F68B7" font-family="Arial, sans-serif" font-size="15">Feedback</text>

  <rect x="290" y="20" width="860" height="860" rx="30" fill="#FFFFFF" stroke="#D8D4F7"/>
  <rect x="314" y="42" width="812" height="128" rx="28" fill="url(#headerGrad)" stroke="#D8D4F7"/>
  <text x="344" y="82" fill="#564CB5" font-family="Arial, sans-serif" font-size="13" font-weight="800" letter-spacing="1.2">WORKFLOW</text>
  <text x="344" y="122" fill="#241D63" font-family="Arial, sans-serif" font-size="32" font-weight="800">Go live from one approved source of truth.</text>
  <text x="344" y="148" fill="#756DBB" font-family="Arial, sans-serif" font-size="15">Launch stage · 80% complete · Feedback comes next</text>
  <rect x="344" y="176" width="560" height="10" rx="5" fill="#E7E2FB"/>
  <rect x="344" y="176" width="432" height="10" rx="5" fill="#695CD8"/>

  <rect x="924" y="74" width="184" height="52" rx="18" fill="url(#ctaGrad)"/>
  <text x="966" y="106" fill="#FFFFFF" font-family="Arial, sans-serif" font-size="20" font-weight="700">Launch Product</text>

  <rect x="314" y="194" width="812" height="60" rx="22" fill="#F0EDFF" stroke="#D8D4F7"/>
  <rect x="328" y="206" width="160" height="36" rx="16" fill="#FFFFFF"/>
  <text x="356" y="229" fill="#564CB5" font-family="Arial, sans-serif" font-size="16" font-weight="700">Product Truth</text>
  <text x="520" y="229" fill="#6F68B7" font-family="Arial, sans-serif" font-size="16" font-weight="600">Core Narrative</text>
  <text x="682" y="229" fill="#6F68B7" font-family="Arial, sans-serif" font-size="16" font-weight="600">GTM</text>
  <text x="764" y="229" fill="#6F68B7" font-family="Arial, sans-serif" font-size="16" font-weight="600">Assets</text>
  <text x="864" y="229" fill="#6F68B7" font-family="Arial, sans-serif" font-size="16" font-weight="600">Feedback</text>

  <text x="330" y="304" fill="#241D63" font-family="Arial, sans-serif" font-size="35" font-weight="800">Product Truth</text>
  <text x="330" y="332" fill="#756DBB" font-family="Arial, sans-serif" font-size="15">Use the AI draft as your starting point, then refine only what matters.</text>

  <rect x="330" y="364" width="778" height="70" rx="20" fill="#F8F7FF" stroke="#D5D0F8"/>
  <circle cx="358" cy="399" r="7" fill="#FFB24F"/>
  <text x="376" y="404" fill="#40368E" font-family="Arial, sans-serif" font-size="18" font-weight="700">Draft generated — refine, save, and continue to the next workspace.</text>

  <rect x="330" y="458" width="220" height="56" rx="18" fill="url(#ctaGrad)"/>
  <text x="366" y="492" fill="#FFFFFF" font-family="Arial, sans-serif" font-size="20" font-weight="700">Save &amp; Continue</text>
  <rect x="564" y="458" width="152" height="56" rx="18" fill="#FFFFFF" stroke="#D8D4F7"/>
  <text x="594" y="492" fill="#241D63" font-family="Arial, sans-serif" font-size="19" font-weight="700">Save Project</text>
  <rect x="730" y="458" width="108" height="56" rx="18" fill="#FFFFFF" stroke="#D8D4F7"/>
  <text x="764" y="492" fill="#241D63" font-family="Arial, sans-serif" font-size="19" font-weight="700">More</text>

  <rect x="330" y="542" width="778" height="268" rx="24" fill="#FFFFFF" stroke="#D8D4F7"/>
  <text x="358" y="582" fill="#564CB5" font-family="Arial, sans-serif" font-size="13" font-weight="800" letter-spacing="1.1">PRODUCT OVERVIEW</text>
  <rect x="358" y="602" width="722" height="126" rx="18" fill="#FBFAFF" stroke="#D8D4F7"/>
  <text x="382" y="642" fill="#241D63" font-family="Arial, sans-serif" font-size="18">An upscale earthy air-tight food container lid made of organic neem wood for hotels.</text>
  <text x="382" y="670" fill="#241D63" font-family="Arial, sans-serif" font-size="18">Neem is naturally anti-bacterial, keeps food safer and fresher, and feels more premium than generic lids.</text>
  <text x="382" y="698" fill="#241D63" font-family="Arial, sans-serif" font-size="18">It also supports a more sustainable hospitality experience.</text>

  <rect x="1168" y="20" width="254" height="860" rx="28" fill="#F8F7FF" stroke="#D8D4F7"/>
  <text x="1192" y="62" fill="#564CB5" font-family="Arial, sans-serif" font-size="13" font-weight="800" letter-spacing="1.2">WORKSPACE STATUS</text>

  <rect x="1188" y="88" width="214" height="140" rx="22" fill="#FFFFFF" stroke="#D8D4F7"/>
  <text x="1210" y="120" fill="#564CB5" font-family="Arial, sans-serif" font-size="12" font-weight="800" letter-spacing="1.1">CURRENT STATE</text>
  <text x="1210" y="156" fill="#241D63" font-family="Arial, sans-serif" font-size="20" font-weight="800">Published and ready</text>
  <text x="1210" y="184" fill="#756DBB" font-family="Arial, sans-serif" font-size="14">This version can move into feedback now.</text>

  <rect x="1188" y="248" width="214" height="182" rx="22" fill="#FFFFFF" stroke="#D8D4F7"/>
  <text x="1210" y="280" fill="#564CB5" font-family="Arial, sans-serif" font-size="12" font-weight="800" letter-spacing="1.1">QUICK ACTIONS</text>
  <rect x="1210" y="300" width="170" height="40" rx="14" fill="#F0EDFF"/>
  <text x="1242" y="325" fill="#564CB5" font-family="Arial, sans-serif" font-size="15" font-weight="700">Review readiness</text>
  <rect x="1210" y="352" width="170" height="40" rx="14" fill="#F0EDFF"/>
  <text x="1250" y="377" fill="#564CB5" font-family="Arial, sans-serif" font-size="15" font-weight="700">View changes</text>

  <rect x="1188" y="450" width="214" height="218" rx="22" fill="#FFFFFF" stroke="#D8D4F7"/>
  <text x="1210" y="482" fill="#564CB5" font-family="Arial, sans-serif" font-size="12" font-weight="800" letter-spacing="1.1">AI SUMMARY</text>
  <text x="1210" y="520" fill="#241D63" font-family="Arial, sans-serif" font-size="16" font-weight="700">Current focus</text>
  <text x="1210" y="548" fill="#756DBB" font-family="Arial, sans-serif" font-size="14">Narrative version is published and the loop is waiting for feedback.</text>
  <text x="1210" y="604" fill="#241D63" font-family="Arial, sans-serif" font-size="16" font-weight="700">Saved state</text>
  <text x="1210" y="632" fill="#756DBB" font-family="Arial, sans-serif" font-size="14">Last saved 2 minutes ago.</text>
</svg>
