<svg width="1260" height="820" viewBox="0 0 1260 820" fill="none" xmlns="http://www.w3.org/2000/svg">
  <rect width="1260" height="820" fill="#F6F4FF"/>

  <rect x="44" y="26" width="1172" height="108" rx="26" fill="#FFFFFF" stroke="#D7D3F7"/>
  <text x="74" y="62" fill="#4C43A8" font-family="Arial, sans-serif" font-size="14" font-weight="700" letter-spacing="1.2">LAUNCH</text>
  <text x="74" y="95" fill="#271F63" font-family="Arial, sans-serif" font-size="28" font-weight="800">Go live from one approved source of truth.</text>
  <text x="74" y="118" fill="#7B74BE" font-family="Arial, sans-serif" font-size="14">80% complete · Next up: Feedback</text>
  <rect x="74" y="150" width="792" height="10" rx="5" fill="#E7E2FA"/>
  <rect x="74" y="150" width="614" height="10" rx="5" fill="#6559D7"/>
  <rect x="914" y="58" width="150" height="46" rx="16" fill="#5C4FD1"/>
  <text x="948" y="86" fill="#FFFFFF" font-family="Arial, sans-serif" font-size="18" font-weight="700">Launch Product</text>
  <rect x="1080" y="58" width="106" height="46" rx="16" fill="#FFFFFF" stroke="#D7D3F7"/>
  <text x="1104" y="86" fill="#271F63" font-family="Arial, sans-serif" font-size="16" font-weight="700">Projects</text>

  <rect x="44" y="160" width="1172" height="610" rx="28" fill="#FFFFFF" stroke="#D7D3F7"/>
  <rect x="66" y="182" width="1128" height="62" rx="22" fill="#F0EDFF" stroke="#D7D3F7"/>

  <rect x="84" y="194" width="162" height="38" rx="16" fill="#FFFFFF"/>
  <text x="114" y="218" fill="#4C43A8" font-family="Arial, sans-serif" font-size="16" font-weight="700">Product Truth</text>
  <text x="278" y="218" fill="#6B63B5" font-family="Arial, sans-serif" font-size="16" font-weight="600">Core Narrative</text>
  <text x="438" y="218" fill="#6B63B5" font-family="Arial, sans-serif" font-size="16" font-weight="600">GTM</text>
  <text x="520" y="218" fill="#6B63B5" font-family="Arial, sans-serif" font-size="16" font-weight="600">Assets</text>
  <text x="620" y="218" fill="#6B63B5" font-family="Arial, sans-serif" font-size="16" font-weight="600">Feedback</text>

  <text x="84" y="288" fill="#271F63" font-family="Arial, sans-serif" font-size="34" font-weight="800">Product Truth</text>
  <text x="84" y="318" fill="#7B74BE" font-family="Arial, sans-serif" font-size="16">Start with the AI draft, refine what matters, and move forward.</text>

  <rect x="84" y="348" width="1090" height="66" rx="20" fill="#F8F6FF" stroke="#CFC9F6"/>
  <circle cx="112" cy="381" r="8" fill="#FFB14A"/>
  <text x="130" y="386" fill="#40368E" font-family="Arial, sans-serif" font-size="19" font-weight="700">Draft generated — review key sections, then continue.</text>

  <rect x="84" y="440" width="224" height="54" rx="18" fill="#5C4FD1"/>
  <text x="122" y="473" fill="#FFFFFF" font-family="Arial, sans-serif" font-size="20" font-weight="700">Save &amp; Continue</text>
  <rect x="324" y="440" width="154" height="54" rx="18" fill="#FFFFFF" stroke="#D7D3F7"/>
  <text x="356" y="473" fill="#271F63" font-family="Arial, sans-serif" font-size="20" font-weight="700">Save Project</text>
  <rect x="494" y="440" width="108" height="54" rx="18" fill="#FFFFFF" stroke="#D7D3F7"/>
  <text x="530" y="473" fill="#271F63" font-family="Arial, sans-serif" font-size="20" font-weight="700">More</text>

  <rect x="84" y="530" width="1090" height="208" rx="24" fill="#FFFFFF" stroke="#D7D3F7"/>
  <text x="112" y="578" fill="#4C43A8" font-family="Arial, sans-serif" font-size="14" font-weight="700" letter-spacing="1.1">PRODUCT OVERVIEW</text>
  <rect x="112" y="598" width="1012" height="106" rx="18" fill="#FBFAFF" stroke="#D7D3F7"/>
  <text x="138" y="636" fill="#271F63" font-family="Arial, sans-serif" font-size="18">An upscale earthy air-tight food container lid made of organic neem wood for hotels.</text>
  <text x="138" y="664" fill="#271F63" font-family="Arial, sans-serif" font-size="18">The premium positioning is safe, hygienic, and more sustainable than generic lids.</text>

  <rect x="930" y="440" width="244" height="142" rx="20" fill="#FBFAFF" stroke="#D7D3F7"/>
  <text x="958" y="474" fill="#4C43A8" font-family="Arial, sans-serif" font-size="13" font-weight="700" letter-spacing="1.1">WORKSPACE STATUS</text>
  <text x="958" y="510" fill="#271F63" font-family="Arial, sans-serif" font-size="18" font-weight="700">Current stage: Launch</text>
  <text x="958" y="540" fill="#6B63B5" font-family="Arial, sans-serif" font-size="15">One workspace left before feedback.</text>
  <text x="958" y="568" fill="#6B63B5" font-family="Arial, sans-serif" font-size="15">Section saved 2 min ago.</text>

  <rect x="84" y="768" width="240" height="28" rx="14" fill="#ECE8FF"/>
  <text x="106" y="787" fill="#4C43A8" font-family="Arial, sans-serif" font-size="13" font-weight="700">Cleaner hierarchy: stage + tabs + 3 actions</text>
</svg>
